<?xml version="1.0" encoding="utf-8"?>
<!-- Generator: Adobe Illustrator 19.1.0, SVG Export Plug-In . SVG Version: 6.00 Build 0)  -->
<svg version="1.2" baseProfile="tiny" id="Layer_1" xmlns="http://www.w3.org/2000/svg" xmlns:xlink="http://www.w3.org/1999/xlink"
	 x="0px" y="0px" viewBox="0 0 254.8 96.4" xml:space="preserve">
<g>
	<g>
		<path fill="#477B00" d="M242.5,88.4c-0.3-1.5-1.4-5.6-3.5-11.2l3.7-1.4c2.2,5.8,3.3,10.2,3.7,11.8L242.5,88.4z M234.2,66.4
			c-1.8-3.5-3.8-6.9-5.9-10.2l3.4-2.2c2.2,3.4,4.3,7,6.1,10.6L234.2,66.4z M3.1,60.7L0,58.1c0.1-0.1,3.1-3.6,8.4-8.9l2.8,2.8
			C6,57.2,3.1,60.7,3.1,60.7z M221.4,46.7c-2.5-3-5.1-6-7.9-8.7l2.8-2.8c2.9,2.8,5.6,5.9,8.2,9.1L221.4,46.7z M19.8,43.9l-2.7-3
			c3-2.7,6.1-5.3,9.3-7.8l2.5,3.1C25.9,38.6,22.8,41.2,19.8,43.9z M204.7,30.1c-3.1-2.4-6.3-4.7-9.6-6.8l2.1-3.4
			c3.4,2.2,6.8,4.5,10,7.1L204.7,30.1z M38.4,29.1l-2.3-3.3c3.4-2.4,6.8-4.6,10.2-6.6l2.1,3.4C45.1,24.6,41.7,26.7,38.4,29.1z
			 M184.8,17.6c-3.5-1.7-7.1-3.3-10.8-4.7l1.4-3.7c3.8,1.4,7.6,3.1,11.2,4.8L184.8,17.6z M58.7,16.8l-1.8-3.6
			c3.7-1.9,7.4-3.5,11.1-5l1.5,3.7C66,13.4,62.3,15,58.7,16.8z M162.7,9.3c-3.7-1-7.6-1.9-11.5-2.6l0.7-3.9c4,0.7,8,1.7,11.8,2.7
			L162.7,9.3z M80.7,8.2l-1.1-3.9c4-1.1,8-2,12-2.5l0.6,4C88.4,6.3,84.5,7.2,80.7,8.2z M139.5,5c-3.8-0.4-7.8-0.7-11.8-0.9l0.2-4
			C132,0.3,136,0.6,140,1L139.5,5z M104,4.6l-0.3-4c4.1-0.3,8.1-0.5,12.1-0.6l0.1,4C112,4.1,108,4.3,104,4.6z"/>
	</g>
	<g>
		<g>
			<polygon fill="#477B00" points="231.6,79.5 244.7,87.5 252.6,74.4 254.8,83.3 246.8,96.4 233.8,88.4 			"/>
		</g>
	</g>
</g>
</svg>
