<svg xmlns="http://www.w3.org/2000/svg" xmlns:xlink="http://www.w3.org/1999/xlink" width="64" height="64" viewBox="0 0 64 64">
  <defs>
    <clipPath id="clip-Nuts">
      <rect width="64" height="64"/>
    </clipPath>
  </defs>
  <g id="Nuts" clip-path="url(#clip-Nuts)">
    <g id="Nuts-2" data-name="Nuts" transform="translate(-32.026 -31.13)">
      <path id="Path_15" data-name="Path 15" d="M304.9,170.745a5.053,5.053,0,0,1-2.182-.483,4.316,4.316,0,0,1-2.373-2.995,8.159,8.159,0,0,1,.371-3.967c.041-.152.082-.3.12-.455a4.036,4.036,0,0,0-.25-3.229,5,5,0,0,0-2.808-1.905,17.374,17.374,0,0,1-4.7-2.172,6.658,6.658,0,0,1-2.886-4.7c-.015-.122-.028-.244-.037-.363h0a7.084,7.084,0,0,1,2.532-6.183,9.364,9.364,0,0,1,8.2-1.723,16.876,16.876,0,0,1,8.918,6.006,18.324,18.324,0,0,1,3.833,9.414,13.359,13.359,0,0,1-1.126,7.036,10.983,10.983,0,0,1-5.177,5.155A5.585,5.585,0,0,1,304.9,170.745Zm-6.36-26.506a7.312,7.312,0,0,0-4.6,1.569,5.082,5.082,0,0,0-1.829,4.509h0c.008.091.017.185.029.279.381,3.052,3.3,4.266,6.254,5.244a6.861,6.861,0,0,1,3.867,2.743,5.959,5.959,0,0,1,.478,4.755c-.04.156-.082.313-.125.47a6.521,6.521,0,0,0-.353,3.016,2.348,2.348,0,0,0,1.3,1.658,3.419,3.419,0,0,0,2.9-.076,8.9,8.9,0,0,0,4.263-4.233,11.4,11.4,0,0,0,.942-6,16.337,16.337,0,0,0-3.423-8.386,14.9,14.9,0,0,0-7.877-5.317A7.085,7.085,0,0,0,298.539,144.239Z" transform="translate(-242.427 -104.162)" fill="#fff"/>
      <path id="Path_16" data-name="Path 16" d="M607.283,415.756c.562.464,1.166.871,1.626,1.183.189.127.367.248.469.323a36.24,36.24,0,0,1,3.593,2.919,9.474,9.474,0,0,1,1.67,12.718,8.8,8.8,0,0,1-4.77,3.506,9.083,9.083,0,0,1-6.367-.46,9.4,9.4,0,0,1-3.614-3.006,8.776,8.776,0,0,1-1.649-4.33,9.456,9.456,0,0,1,1.521-5.863,16.123,16.123,0,0,1,4.6-4.721,28.115,28.115,0,0,0,2.922-2.265m.055-3.208s-.022,1.043-4.1,3.851c-4.014,2.766-7.425,7.273-6.965,12.385a11.165,11.165,0,0,0,6.387,8.942,10.907,10.907,0,0,0,4.628,1.019,11.034,11.034,0,0,0,3.137-.453,11.357,11.357,0,0,0,7.9-11.239,11.882,11.882,0,0,0-3.993-8.3,37.962,37.962,0,0,0-3.787-3.082c-.784-.579-3.236-1.99-3.212-3.128Z" transform="translate(-528.427 -356.689)" fill="#fff"/>
      <path id="Path_17" data-name="Path 17" d="M646.674,689.933a14.189,14.189,0,0,0-10.419-2.13,16.37,16.37,0,0,0-4.883,1.593l-.812-1.428a17.526,17.526,0,0,1,5.363-1.774,16.016,16.016,0,0,1,11.653,2.365Z" transform="translate(-560.496 -612.124)" fill="#fff"/>
      <path id="Path_18" data-name="Path 18" d="M166.131,427.385a11.062,11.062,0,0,1-4.51-1,9.506,9.506,0,0,1-4.731-5.351,14.428,14.428,0,0,1-.761-3.266,10.15,10.15,0,0,0-.862-3.285c-.048-.089-.1-.178-.153-.263-.125-.2-.235-.388-.329-.55a3.506,3.506,0,0,0-1.3-1.476,15.412,15.412,0,0,0-2.254-1.174,12.793,12.793,0,0,1-3.434-2.03,9.2,9.2,0,0,1-2.884-5.273c-.608-3.589.842-8.07,4.791-9.689a9.262,9.262,0,0,1,5.227-.486,7.806,7.806,0,0,1,4.6,2.643c1.721,2.116,2.168,4.842,2.562,7.248.1.639.2,1.241.321,1.831.066.329.122.622.17.881a4.118,4.118,0,0,0,.47,1.635,6.015,6.015,0,0,0,1.856,1.124c.377.182.758.359,1.125.53,2.8,1.3,5.44,2.528,6.756,6,1.093,2.891,1.453,7.188-1.131,9.79a7.479,7.479,0,0,1-4.913,2.132Q166.443,427.385,166.131,427.385Zm-13-32.045a7.086,7.086,0,0,0-2.674.512,5.763,5.763,0,0,0-3.036,3.043,7.848,7.848,0,0,0-.559,4.492,7.228,7.228,0,0,0,2.262,4.139,11.114,11.114,0,0,0,2.93,1.7,17.333,17.333,0,0,1,2.536,1.331,5.365,5.365,0,0,1,1.9,2.11c.1.162.2.328.311.518h0c.074.12.144.241.21.363a11.732,11.732,0,0,1,1.076,3.925,12.775,12.775,0,0,0,.641,2.825,7.72,7.72,0,0,0,3.715,4.29c2.431,1.105,5.791,1.3,7.825-.748,1.8-1.816,1.643-5.179.687-7.707-1.032-2.725-3.111-3.691-5.743-4.915-.375-.174-.761-.354-1.151-.542a6.846,6.846,0,0,1-2.548-1.68,5.336,5.336,0,0,1-.859-2.49c-.047-.254-.1-.541-.166-.854-.125-.625-.232-1.274-.334-1.905-.371-2.268-.754-4.613-2.144-6.322a5.854,5.854,0,0,0-3.449-1.952A7.486,7.486,0,0,0,153.126,395.339Z" transform="translate(-106.633 -338.769)" fill="#fff"/>
      <path id="Path_19" data-name="Path 19" d="M301.414,547.183a2.355,2.355,0,0,1-2.152-3.363l1.48.71a.693.693,0,0,0,.062.706.725.725,0,0,0,.705.3l.17,1.634A2.628,2.628,0,0,1,301.414,547.183Z" transform="translate(-250.755 -479.334)" fill="#fff"/>
      <path id="Path_20" data-name="Path 20" d="M253.323,469.882a2.355,2.355,0,0,1-2.151-3.362l1.482.709a.693.693,0,0,0,.062.706.729.729,0,0,0,.705.3l.17,1.633A2.618,2.618,0,0,1,253.323,469.882Z" transform="translate(-205.824 -407.113)" fill="#fff"/>
      <path id="Path_21" data-name="Path 21" d="M234.554,536.183a2.355,2.355,0,0,1-2.151-3.363l1.482.709a.692.692,0,0,0,.062.706.724.724,0,0,0,.705.3l.17,1.634A2.622,2.622,0,0,1,234.554,536.183Z" transform="translate(-188.288 -469.057)" fill="#fff"/>
      <path id="Path_22" data-name="Path 22" d="M462.788,780.883a2.355,2.355,0,0,1-2.151-3.363l1.482.709a.693.693,0,0,0,.062.706.725.725,0,0,0,.705.3l.169,1.634a2.644,2.644,0,0,1-.267.014Z" transform="translate(-401.526 -697.679)" fill="#fff"/>
      <path id="Path_23" data-name="Path 23" d="M414.693,703.562a2.355,2.355,0,0,1-2.151-3.362l1.482.71a.692.692,0,0,0,.066.706.728.728,0,0,0,.7.3l.17,1.633A2.622,2.622,0,0,1,414.693,703.562Z" transform="translate(-356.591 -625.439)" fill="#fff"/>
      <path id="Path_24" data-name="Path 24" d="M395.928,769.873a2.355,2.355,0,0,1-2.151-3.363l1.482.709a.693.693,0,0,0,.062.706.724.724,0,0,0,.7.3l.17,1.634a2.662,2.662,0,0,1-.267.014Z" transform="translate(-339.059 -687.392)" fill="#fff"/>
      <path id="Path_25" data-name="Path 25" d="M389.44,278.065l-1.623-.253a14.509,14.509,0,0,0,.143-4.988,4.859,4.859,0,0,0-2.653-3.518,14.53,14.53,0,0,0-2.152-.875c-1.67-.575-3.4-1.17-4.475-3.271l1.461-.75c.777,1.511,2,1.934,3.548,2.469a15.376,15.376,0,0,1,2.391.979,6.568,6.568,0,0,1,3.488,4.635A15.911,15.911,0,0,1,389.44,278.065Z" transform="translate(-325.166 -218.282)" fill="#fff"/>
    </g>
  </g>
</svg>
