<?xml version="1.0" encoding="utf-8"?>
<!-- Generator: Adobe Illustrator 19.1.0, SVG Export Plug-In . SVG Version: 6.00 Build 0)  -->
<svg version="1.1" baseProfile="tiny" id="object" xmlns="http://www.w3.org/2000/svg" xmlns:xlink="http://www.w3.org/1999/xlink"
	 x="0px" y="0px" viewBox="0 0 46.4 45.8" xml:space="preserve">
<g>
	<path fill="#F4DDBB" d="M11.9,2.6c0,0,0,2.5,0.5,3.5c0.5,0.8,1.5,1.8,2.2,2.5c0.9,0.8,2.1,1.7,2.1,1.7s-4.4,5.4-3.8,11.4
		c0.5,4.9,5.4,8.8,9.1,11.3s9.7,6.4,10.2,7.9c0.6,1.5,0.4,2.9-1.3,3.6c-1.8,0.8-11.7,3.9-21-2.7S0.5,27.9,0,23.2S3,6.1,11.9,2.6z"/>
	<path fill="#F4DDBB" d="M34.3,43.3c0,0,0.1-2.5-0.5-3.5c-0.5-0.8-1.5-1.8-2.2-2.5c-0.9-0.8-2.1-1.7-2.1-1.7s4.4-5.3,3.9-11.3
		c-0.4-4.9-5.3-8.8-8.9-11.4s-9.6-6.5-10.1-8c-0.5-1.5-0.4-2.9,1.4-3.6s11.7-3.8,21,3s9.2,13.8,9.6,18.6
		C46.8,27.7,43.3,39.9,34.3,43.3z"/>
</g>
</svg>
